<svg xmlns="http://www.w3.org/2000/svg" width="51" height="54" fill="none" viewBox="0 0 51 54">
  <path fill="#212121" d="m49 32.556 1.44.42c.04-.136.06-.278.06-.42H49ZM38.963 27a1.5 1.5 0 0 0 3 0h-3Zm-8.537 0a1.5 1.5 0 0 0 3 0h-3Zm-8.537 0a1.5 1.5 0 0 0 3 0h-3Zm-7.037 2.778-1.189.914a1.5 1.5 0 0 0 2.69-.914h-1.5Zm-6.568-8.55 1.19-.913-1.19.914Zm-4.289-.297-1.047-1.073 1.047 1.073Zm-1.05 1.026 1.047 1.074-1.048-1.073Zm-.312 4.768-1.29.767 1.29-.767ZM9.16 43.667l-1.443.41a1.5 1.5 0 0 0 .204.436l1.24-.846ZM50.5 32.556V13.11h-3v19.445h3ZM46.154 8.833h-5.69v3h5.69v-3Zm-7.19 1.5V27h3V10.333h-3Zm3 0V7.556h-3v2.777h3Zm-4.346-7.055h-2.846v3h2.846v-3Zm-7.192 4.278V27h3V7.556h-3Zm3 0V4.778h-3v2.778h3ZM29.081.5h-2.846v3h2.846v-3Zm-7.192 4.278V27h3V4.778h-3Zm1.5-1.5h-5.691v3h5.691v-3ZM13.352 7.556v22.222h3V7.556h-3Zm2.69 21.308-6.568-8.549-2.38 1.828 6.569 8.549 2.379-1.828ZM2.948 19.858l-1.051 1.026 2.095 2.147 1.051-1.026-2.095-2.147Zm-1.605 7.634c1.551 2.607 3.142 6.712 4.364 10.257a142.685 142.685 0 0 1 2.003 6.298l.007.024.001.005v.001l1.443-.41 1.443-.411v-.003l-.003-.007-.008-.026-.028-.1a127.617 127.617 0 0 0-.53-1.767 145.75 145.75 0 0 0-1.492-4.582c-1.224-3.55-2.898-7.916-4.621-10.813l-2.579 1.534Zm7.818 16.175a455.05 455.05 0 0 0-1.238.846l.001.002.004.006.014.02.052.075.193.275a55.1 55.1 0 0 0 3.035 3.916c.912 1.069 1.952 2.182 2.98 3.041.512.43 1.056.825 1.607 1.118.536.285 1.188.534 1.889.534v-3c.003 0-.035 0-.123-.027a2.091 2.091 0 0 1-.356-.155c-.305-.162-.672-.419-1.093-.77-.84-.704-1.756-1.674-2.623-2.689a52.15 52.15 0 0 1-2.867-3.7l-.178-.254-.045-.065-.01-.016-.003-.003-1.239.846Zm8.537 9.833H41.81v-3H17.698v3Zm27.471-2.517 5.27-18.006-2.879-.843-5.27 18.007 2.88.842ZM1.897 20.884c-1.878 1.832-1.651 4.762-.554 6.608l2.579-1.534c-.641-1.078-.502-2.369.07-2.927l-2.095-2.147Zm7.577-.569c-1.59-2.07-4.663-2.276-6.526-.457l2.095 2.147c.586-.572 1.564-.497 2.052.138l2.379-1.828Zm8.224-17.037c-2.366 0-4.346 1.881-4.346 4.278h3c0-.672.569-1.278 1.346-1.278v-3ZM26.235.5c-2.366 0-4.346 1.881-4.346 4.278h3c0-.672.568-1.278 1.346-1.278v-3Zm7.191 4.278C33.426 2.38 31.446.5 29.081.5v3c.777 0 1.345.606 1.345 1.278h3Zm1.346-1.5c-2.366 0-4.346 1.881-4.346 4.278h3c0-.672.568-1.278 1.346-1.278v-3Zm7.191 4.278c0-2.397-1.98-4.278-4.346-4.278v3c.778 0 1.346.606 1.346 1.278h3ZM50.5 13.11c0-2.396-1.98-4.278-4.346-4.278v3c.778 0 1.346.606 1.346 1.278h3ZM41.81 53.5a3.5 3.5 0 0 0 3.36-2.517l-2.88-.842a.5.5 0 0 1-.48.359v3Z"/>
</svg>
