<svg xmlns="http://www.w3.org/2000/svg" width="67" height="67" fill="none" viewBox="0 0 67 67">
  <path fill="#212121" d="m42.833 47.306-1.426-.465 1.426.465Zm-18.666 0 1.426-.465-1.426.465ZM5.5 31.5a1.5 1.5 0 0 0 0-3v3Zm-3.5-3a1.5 1.5 0 0 0 0 3v-3Zm11.19-13.19a1.5 1.5 0 0 0 2.12-2.12l-2.12 2.12Zm-1.38-5.62a1.5 1.5 0 0 0-2.12 2.12l2.12-2.12ZM35 2a1.5 1.5 0 0 0-3 0h3Zm-3 3.5a1.5 1.5 0 0 0 3 0h-3Zm19.69 7.69a1.5 1.5 0 0 0 2.12 2.12l-2.12-2.12Zm5.62-1.38a1.5 1.5 0 0 0-2.12-2.12l2.12 2.12ZM65 31.5a1.5 1.5 0 0 0 0-3v3Zm-3.5-3a1.5 1.5 0 0 0 0 3v-3ZM21 34.667C21 27.003 26.707 21 33.5 21v-3C24.829 18 18 25.577 18 34.667h3ZM33.5 21C40.293 21 46 27.003 46 34.667h3C49 25.577 42.171 18 33.5 18v3ZM25 54.5V61h3v-6.5h-3Zm5.5 12h6v-3h-6v3ZM42 61v-6.5h-3V61h3Zm4-26.333c0 3.951-.77 5.785-1.596 7.103-.491.784-.9 1.255-1.504 2.13-.55.798-1.094 1.717-1.493 2.94l2.853.93c.279-.857.658-1.512 1.109-2.165.398-.577 1.072-1.435 1.578-2.243C48.115 41.496 49 39.092 49 34.667h-3ZM41.407 46.84a2962.77 2962.77 0 0 0-2.188 6.742l-.11.343-.028.086-.007.022-.001.005v.001h-.001l1.428.46 1.428.46v-.003l.002-.005.007-.021.028-.086c.024-.076.06-.19.11-.341l.439-1.36c.39-1.204.973-3.002 1.745-5.374l-2.852-.93ZM26.5 54.5l1.428-.46v-.001l-.002-.005-.007-.022-.028-.086-.11-.343a1814.46 1814.46 0 0 0-2.188-6.742l-2.853.93a2832.809 2832.809 0 0 1 2.185 6.733c.05.151.086.265.11.341l.028.086.007.021.001.005v.002h.001L26.5 54.5Zm-.907-7.66c-.399-1.223-.942-2.142-1.493-2.94-.604-.875-1.013-1.346-1.504-2.13C21.771 40.452 21 38.618 21 34.667h-3c0 4.424.885 6.829 2.053 8.695.506.808 1.18 1.666 1.578 2.243.451.653.83 1.308 1.11 2.165l2.852-.93ZM40.5 53h-7v3h7v-3Zm-7 0h-7v3h7v-3Zm-28-24.5H2v3h3.5v-3Zm9.81-15.31-3.5-3.5-2.12 2.12 3.5 3.5 2.12-2.12ZM32 2v3.5h3V2h-3Zm21.81 13.31 3.5-3.5-2.12-2.12-3.5 3.5 2.12 2.12ZM65 28.5h-3.5v3H65v-3Zm-28.5 38A5.5 5.5 0 0 0 42 61h-3a2.5 2.5 0 0 1-2.5 2.5v3ZM25 61a5.5 5.5 0 0 0 5.5 5.5v-3A2.5 2.5 0 0 1 28 61h-3Z"/>
</svg>
