<svg width="119" height="46" viewBox="0 0 119 46" fill="none" xmlns="http://www.w3.org/2000/svg">
<path d="M119 23.0002L104.634 8.87531L90.2677 23.0002L95.6072 28.2497L104.634 19.3747L108.321 23.0002L95.6072 35.5006L82.8929 23.0002L100.946 5.24986L95.6072 0L77.5537 17.7503L68.5268 8.87531L45.1337 31.8752L50.4732 37.125L68.5268 19.3747L72.2142 23.0002L54.1606 40.7505L59.5002 46L77.5537 28.2497L95.6072 46L119 23.0002Z" fill="white"/>
<path d="M64.8394 5.24986L59.5002 0L41.4466 17.7503L32.4197 8.87531L14.3661 26.6253L10.6788 23.0002L28.7323 5.24986L23.3931 0L0 23.0002L14.3661 37.125L32.4197 19.3747L36.1071 23.0002L18.0535 40.7505L23.3931 46L64.8394 5.24986Z" fill="white"/>
</svg>
