<svg width="316" height="90" viewBox="0 0 316 90" fill="none" xmlns="http://www.w3.org/2000/svg">
<path d="M316 45.0004L277.851 7.53888L239.702 45.0004L253.881 58.9231L277.851 35.3851L287.643 45.0004L253.881 78.1538L220.119 45.0004L268.06 -2.07647L253.881 -16L205.941 31.0769L181.97 7.53888L119.851 68.5385L134.03 82.462L181.97 35.3851L191.762 45.0004L143.821 92.0773L158 106L205.941 58.9231L253.881 106L316 45.0004Z" fill="white"/>
<path d="M172.179 -2.07647L158 -16L110.06 31.0769L86.0893 7.53888L38.1488 54.6149L28.357 45.0004L76.2975 -2.07647L62.1194 -16L0 45.0004L38.1488 82.462L86.0893 35.3851L95.881 45.0004L47.9405 92.0773L62.1194 106L172.179 -2.07647Z" fill="white"/>
</svg>
