<svg xmlns="http://www.w3.org/2000/svg" width="729" height="605" fill="none" viewBox="0 0 729 605">
  <path stroke="#000" stroke-linecap="round" stroke-width="9" d="m5 600 82.048-76h546.267L724 600"/>
  <path fill="#FBFBFB" stroke="#212121" stroke-width="9" d="M378.531 340.825c-101.667 0-113.706-117.895-107.017-176.842 4.432-20.386 30.591-61.158 99.77-61.158s100.86 40.772 108.053 61.158c8.759 58.947.86 176.842-100.806 176.842Z"/>
  <path fill="#FBFBFB" stroke="#212121" stroke-linejoin="round" stroke-width="9" d="M242 215.281c5.2-18 21.167-10.834 28.5-5 0 14.8 2.5 36.044 7 47.544-17.5 0-42-20.044-35.5-42.544Z"/>
  <path fill="#FBFBFB" stroke="#212121" stroke-width="9" d="M516.001 215.281c-5.2-18-21.167-10.834-28.5-5 0 14.8-7.334 36.877-8.501 46.544 17.5 0 43.501-19.044 37.001-41.544Z"/>
  <path stroke="#212121" stroke-linecap="round" stroke-linejoin="round" stroke-width="7" d="M361 285.825c4.333 2.333 17.4 5.6 35 0"/>
  <path stroke="#000" stroke-linecap="round" stroke-linejoin="round" stroke-width="9" d="m312 189.247 26-5m81.5-.768 25.513 7.078"/>
  <path stroke="#212121" stroke-linecap="round" stroke-linejoin="round" stroke-width="9" d="M368 256.037c3.667 2.667 12.6 6.4 19 0"/>
  <ellipse cx="334.5" cy="217" fill="#000" rx="6.5" ry="8"/>
  <ellipse cx="415.5" cy="217" fill="#000" rx="6.5" ry="8"/>
  <path fill="#212121" stroke="#212121" stroke-linecap="round" stroke-linejoin="round" stroke-width="11" d="M381 35.325c-115-15.5-141 109-127.501 164l14 6.5v-36.788c32.4 4.4 58.5-5.833 67.5-11.5 36.001 18.463 38 10.5 42.5 2.5 36.001 17.463 35.167 3 38.5-5.5 23.2 8.4 56.334 11.5 70 12l3.5 36.288 11.5-3.5C519.5 64.825 426.833 25.992 381 35.325Z"/>
  <path stroke="#212121" stroke-linecap="round" stroke-linejoin="round" stroke-width="9" d="M234 370.825h280c27.333 20 82 78.4 82 152H162c4.667-40.667 24.4-128 66-152"/>
  <path fill="#FBFBFB" stroke="#212121" stroke-linecap="round" stroke-linejoin="round" stroke-width="9" d="M81 520.811c0-8.454 8-11.397 12-11.811v23c-4-.207-12-2.735-12-11.189ZM126.998 485C94 485 97 518.548 96 525h62.997c0-10.323 1-40-31.999-40Z"/>
  <path fill="#FBFBFB" stroke="#212121" stroke-linecap="round" stroke-linejoin="round" stroke-width="9" d="M126.998 505c-20.189 0-26.903 10.989-29.302 20.813-1.771 7.251 5.152 14.187 12.616 14.187h36.685c6.627 0 12.408-5.431 11.254-11.957C156.369 517.4 149.801 505 126.998 505Z"/>
  <path stroke="#212121" stroke-linecap="round" stroke-linejoin="round" stroke-width="9" d="M129 506.825v17"/>
  <path fill="#FBFBFB" stroke="#212121" stroke-linecap="round" stroke-linejoin="round" stroke-width="9" d="M89 505.42c0-12.641 6.448-12.442 9.672-12.595 2.776.534 8.328.87 8.328 12.595 0 14.657-3.493 17.405-8.328 17.405-4.836 0-9.672-1.603-9.672-17.405Zm18-13.405c0-13.062 6.09-12.857 9.134-13.015 2.622.552 7.866.899 7.866 13.015 0 15.145-3.299 17.985-7.866 17.985S107 508.344 107 492.015Zm48 14.825c0-13.062 7.522-12.857 11.284-13.015 3.238.552 9.716.899 9.716 13.015 0 15.145-4.075 17.985-9.716 17.985-5.642 0-11.284-1.657-11.284-17.985Zm-17-10.825c0-13.062 6.09-12.857 9.134-13.015 2.622.552 7.866.899 7.866 13.015 0 15.145-3.299 17.985-7.866 17.985S138 512.344 138 496.015Z"/>
  <path stroke="#212121" stroke-linecap="round" stroke-linejoin="round" stroke-width="6" d="M124.251 540c-1.991 4.667 6.971 14 58.749 14"/>
  <path stroke="#FBFBFB" stroke-linecap="round" stroke-linejoin="round" stroke-width="8" d="M365.5 54.325c-4.167-1.333-14.8-2.1-24 5.5m28.5 8c-2.167-.333-7.2 1.1-10 9.5m26-21c3-1.833 10.9-3.9 18.5 2.5"/>
  <path stroke="#212121" stroke-linecap="round" stroke-linejoin="round" stroke-width="6" d="M259.5 221c-1.833 3.167-4 11 2 17"/>
  <path fill="#FBFBFB" d="M283.106 221.318 265 212c0 11.733.391 35.821 1.957 38.306 1.566 2.485 14.681 4.831 21.043 5.694l-4.894-34.682Zm191.788-.212L493 212c0 11.467.612 36.114-1.957 37.435C488 251 476.362 254.157 470 255l4.894-33.894Z"/>
  <path stroke="#212121" stroke-linecap="round" stroke-width="9" d="M276.437 246.185C278.446 256.68 288.222 287.02 293.5 294m184.768-47.815c-2.01 10.495-11.785 40.835-17.063 47.815"/>
  <path stroke="#212121" stroke-linecap="round" stroke-linejoin="round" stroke-width="6" d="M496 221c1.833 3.167 4 11-2 17"/>
  <path stroke="#212121" stroke-linecap="round" stroke-linejoin="round" stroke-width="9" d="M270 203c.167 3 1.4 12.556 2 15.5-.167-3-2.5-10.3-10.5-15.5m220.5 4c-.167 3-1.4 12.556-2 15.5.167-3 4-10.3 12-15.5"/>
  <g filter="url(#a)">
    <path fill="#FFF9BF" fill-opacity=".3" d="M138 95.566 303.389 497h171.75L612 95.566c-182.361-56.948-286.298-53.874-474 0Z"/>
  </g>
  <rect width="385" height="24" x="186.5" y="538.5" fill="#CCC" stroke="#212121" stroke-width="9" rx="5.5"/>
  <rect width="385" height="234" x="185.5" y="293.5" fill="#CCC" stroke="#212121" stroke-width="9" rx="10.5"/>
  <circle cx="378.5" cy="410.5" r="15.5" fill="#CCC" stroke="#212121" stroke-width="6"/>
  <path fill="#FBFBFB" d="M596 60c0 18.225-14.691 33-32.812 33-5.967 0-13.126-4.4-17.5-4.4C543.5 88.6 526 93 526 93s6.562-13.2 6.562-17.6c0-4.4-2.187-11.543-2.187-15.4 0-18.225 14.691-33 32.813-33C581.309 27 596 41.775 596 60Z"/>
  <path fill="#212121" d="m526 93-2.686-1.335a3 3 0 0 0 3.418 4.244L526 93Zm67-33c0 16.585-13.364 30-29.812 30v6C582.982 96 599 79.866 599 60h-6Zm-59.625 0c0-16.585 13.364-30 29.813-30v-6c-19.795 0-35.813 16.134-35.813 36h6Zm29.813-30C579.636 30 593 43.415 593 60h6c0-19.866-16.018-36-35.812-36v6Zm0 60c-2.382 0-5.18-.898-8.339-2.025-1.49-.532-3.085-1.12-4.561-1.562-1.46-.436-3.063-.813-4.6-.813v6c.65 0 1.582.173 2.881.562 1.283.383 2.671.895 4.264 1.463 3.006 1.073 6.77 2.375 10.355 2.375v-6Zm-17.5-4.4c-.576 0-1.342.12-1.991.234-.738.129-1.641.31-2.63.519-1.983.42-4.402.976-6.734 1.528a721.947 721.947 0 0 0-8.865 2.16l-.148.037-.038.01-.01.002h-.003L526 93l.732 2.91.002-.001a.38.38 0 0 1 .01-.003l.036-.009.146-.036.556-.14a796.73 796.73 0 0 1 8.232-2.002 302.014 302.014 0 0 1 6.596-1.497 73.424 73.424 0 0 1 2.42-.478c.727-.127.986-.144.958-.144v-6ZM526 93l2.687 1.335.001-.003.004-.009.016-.031.058-.118.215-.44a151.988 151.988 0 0 0 3.06-6.709c.836-1.96 1.692-4.108 2.344-6.075.615-1.858 1.177-3.918 1.177-5.55h-6c0 .568-.258 1.808-.873 3.662-.578 1.746-1.363 3.724-2.168 5.612a146.225 146.225 0 0 1-3.139 6.853l-.052.105-.013.026a.02.02 0 0 1-.003.005v.002L526 93Zm9.562-17.6c0-2.55-.619-5.748-1.148-8.475-.574-2.959-1.039-5.358-1.039-6.925h-6c0 2.29.629 5.391 1.149 8.068.564 2.909 1.038 5.482 1.038 7.332h6Z"/>
  <path fill="#FBFBFB" d="M177.556 3H164a2 2 0 0 0-2 2v66a2 2 0 0 0 2 2h13.556a2 2 0 0 0 2-2V5a2 2 0 0 0-2-2Zm30.722 17.5h-13.556a2 2 0 0 0-2 2V71a2 2 0 0 0 2 2h13.556a2 2 0 0 0 2-2V22.5a2 2 0 0 0-2-2ZM239 38h-13.556a2 2 0 0 0-2 2v31a2 2 0 0 0 2 2H239a2 2 0 0 0 2-2V40a2 2 0 0 0-2-2Z"/>
  <path stroke="#212121" stroke-linecap="round" stroke-linejoin="round" stroke-width="6" d="M177.556 3H164a2 2 0 0 0-2 2v66a2 2 0 0 0 2 2h13.556a2 2 0 0 0 2-2V5a2 2 0 0 0-2-2Zm30.722 17.5h-13.556a2 2 0 0 0-2 2V71a2 2 0 0 0 2 2h13.556a2 2 0 0 0 2-2V22.5a2 2 0 0 0-2-2ZM239 38h-13.556a2 2 0 0 0-2 2v31a2 2 0 0 0 2 2H239a2 2 0 0 0 2-2V40a2 2 0 0 0-2-2Z"/>
  <path fill="#FBFBFB" d="M174.375 272.312c0 10.874-8.814 19.688-19.687 19.688H135c8.75-8.75 4.375-17.5 4.375-24.062 0-6.563 8.75-15.313 15.313-15.313.739 0 1.469.041 2.187.12 9.126 1.009 16.372 8.254 17.38 17.38.08.718.12 1.448.12 2.187ZM205 222c-9.338 0-23.106 8.859-35 18.741 10.938 3.134 13.125 5.321 17.5 14.749 9.371-11.534 17.5-24.544 17.5-33.49Z"/>
  <path fill="#212121" d="m135 292-2.121-2.121A3 3 0 0 0 135 295v-3Zm70-70h3a3 3 0 0 0-3-3v3Zm-35 18.741-1.917-2.308 1.917 2.308Zm1.375 31.571c0 9.217-7.471 16.688-16.687 16.688v6c12.53 0 22.687-10.158 22.687-22.688h-6Zm-29-4.374c0-2.125 1.551-5.23 4.317-7.996s5.871-4.317 7.996-4.317v-6c-4.438 0-8.989 2.824-12.239 6.074s-6.074 7.801-6.074 12.239h6ZM154.688 289H135v6h19.688v-6Zm-17.567 5.121c5.023-5.022 6.348-10.204 6.348-14.973 0-2.293-.306-4.473-.578-6.344-.285-1.96-.516-3.492-.516-4.866h-6c0 1.906.316 3.929.578 5.729.275 1.888.516 3.674.516 5.481 0 3.435-.863 7.003-4.59 10.731l4.242 4.242Zm34.152-23.666c.068.609.102 1.228.102 1.857h6c0-.849-.046-1.689-.138-2.517l-5.964.66Zm-16.585-14.83c.629 0 1.249.035 1.857.102l.66-5.964a23.023 23.023 0 0 0-2.517-.138v6Zm1.857.102c7.73.854 13.874 6.998 14.728 14.728l5.964-.66c-1.163-10.521-9.511-18.869-20.032-20.032l-.66 5.964ZM205 219c-5.473 0-11.813 2.541-18.019 6.054-6.302 3.566-12.868 8.369-18.898 13.379l3.834 4.615c5.864-4.871 12.129-9.439 18.019-12.772C195.922 226.888 201.134 225 205 225v-6Zm-36.917 19.433a190.408 190.408 0 0 0-13.339 12.2l4.262 4.224a184.15 184.15 0 0 1 12.911-11.809l-3.834-4.615ZM202 222c0 3.695-1.727 8.635-4.863 14.326-3.089 5.605-7.348 11.589-11.965 17.272l4.656 3.784c4.754-5.851 9.245-12.139 12.563-18.16C205.662 233.289 208 227.251 208 222h-6Zm-16.828 31.598a184.579 184.579 0 0 1-13.028 14.396l4.223 4.262a190.56 190.56 0 0 0 13.461-14.874l-4.656-3.784Zm-15.998-9.973c5.435 1.557 8.155 2.748 10.08 4.405 1.922 1.653 3.337 4.009 5.525 8.723l5.442-2.526c-2.187-4.713-4.053-8.165-7.054-10.746-2.996-2.577-6.839-4.048-12.341-5.624l-1.652 5.768Z"/>
  <path fill="#FBFBFB" fill-rule="evenodd" stroke="#212121" stroke-linejoin="round" stroke-width="6" d="M605.278 186a2 2 0 0 0-2-2h-13.556a2 2 0 0 0-2 2v6.559c0 .884-.584 1.658-1.418 1.951-1.058.372-2.09.801-3.091 1.282-.798.383-1.758.249-2.384-.377l-5.612-5.612a2 2 0 0 0-2.829 0l-9.585 9.585a2 2 0 0 0 0 2.829l5.612 5.612c.626.626.76 1.586.377 2.384a30.488 30.488 0 0 0-1.282 3.091c-.293.834-1.067 1.418-1.951 1.418H559a2 2 0 0 0-2 2v13.556a2 2 0 0 0 2 2h6.559c.884 0 1.658.584 1.951 1.418.219.623.457 1.236.715 1.839.333.782.184 1.695-.418 2.297l-5.004 5.004a2 2 0 0 0 0 2.829l9.585 9.585a2 2 0 0 0 2.829 0l4.322-4.322c.65-.65 1.657-.767 2.467-.333a30.525 30.525 0 0 0 4.298 1.895c.834.293 1.418 1.067 1.418 1.951V261a2 2 0 0 0 2 2h13.556a2 2 0 0 0 2-2v-6.559c0-.884.584-1.658 1.418-1.951a30.488 30.488 0 0 0 3.091-1.282c.798-.383 1.758-.249 2.384.377l3.665 3.665a2 2 0 0 0 2.829 0l9.585-9.585a2 2 0 0 0 0-2.829l-3.665-3.665c-.626-.626-.76-1.586-.377-2.384.481-1.001.91-2.033 1.282-3.091.293-.834 1.067-1.418 1.951-1.418H634a2 2 0 0 0 2-2v-13.556a2 2 0 0 0-2-2h-6.559c-.884 0-1.658-.584-1.951-1.418a30.525 30.525 0 0 0-1.895-4.298c-.434-.81-.317-1.817.333-2.467l4.322-4.322a2 2 0 0 0 0-2.829l-9.586-9.585a2 2 0 0 0-2.828 0l-5.004 5.004c-.602.602-1.515.751-2.297.418a29.774 29.774 0 0 0-1.839-.715c-.834-.293-1.418-1.067-1.418-1.951V186Zm-8.778 50.667c7.272 0 13.167-5.895 13.167-13.167s-5.895-13.167-13.167-13.167-13.167 5.895-13.167 13.167 5.895 13.167 13.167 13.167Z" clip-rule="evenodd"/>
  <rect width="98" height="66.348" x="92" y="118" fill="#FBFBFB" stroke="#212121" stroke-width="6" rx="4"/>
  <path stroke="#212121" stroke-linecap="round" stroke-linejoin="round" stroke-width="6" d="M94.426 135.8h94.052"/>
  <circle cx="103.018" cy="127.209" r="3.165" fill="#212121"/>
  <circle cx="112.965" cy="127.209" r="3.165" fill="#212121"/>
  <circle cx="122.913" cy="127.209" r="3.165" fill="#212121"/>
  <path fill="#212121" d="M150.599 150.056a3 3 0 1 0-5.081-3.19l5.081 3.19Zm-18.189 17.686a3 3 0 1 0 5.081 3.19l-5.081-3.19Zm13.108-20.876-13.108 20.876 5.081 3.19 13.108-20.876-5.081-3.19Z"/>
  <path stroke="#212121" stroke-linecap="round" stroke-linejoin="round" stroke-width="6" d="m125.003 169.337-10.681-10.438 10.681-10.438m33.003 0 10.681 10.438-10.681 10.438"/>
  <defs>
    <filter id="a" width="554" height="523" x="98" y="14" color-interpolation-filters="sRGB" filterUnits="userSpaceOnUse">
      <feFlood flood-opacity="0" result="BackgroundImageFix"/>
      <feBlend in="SourceGraphic" in2="BackgroundImageFix" result="shape"/>
      <feGaussianBlur result="effect1_foregroundBlur_496_1864" stdDeviation="20"/>
    </filter>
  </defs>
</svg>
