<svg xmlns="http://www.w3.org/2000/svg" width="55" height="54" fill="none" viewBox="0 0 55 54">
  <path fill="#212121" d="m16.167 24.222 1.19-.912a1.5 1.5 0 0 0-1.19-.588v1.5Zm22.666 0v-1.5a1.5 1.5 0 0 0-1.19.588l1.19.912Zm1.334-8.333c0 6.814-5.643 12.389-12.667 12.389v3c8.624 0 15.667-6.862 15.667-15.39h-3ZM27.5 28.278c-7.024 0-12.667-5.575-12.667-12.39h-3c0 8.528 7.043 15.39 15.667 15.39v-3Zm-12.667-12.39C14.833 9.076 20.476 3.5 27.5 3.5v-3c-8.624 0-15.667 6.862-15.667 15.389h3ZM27.5 3.5c7.024 0 12.667 5.575 12.667 12.389h3C43.167 7.362 36.124.5 27.5.5v3Zm-11.333 47C9.143 50.5 3.5 44.925 3.5 38.111h-3C.5 46.638 7.542 53.5 16.167 53.5v-3ZM3.5 38.111c0-6.814 5.643-12.389 12.667-12.389v-3C7.542 22.722.5 29.584.5 38.112h3Zm48 0c0 6.814-5.643 12.389-12.667 12.389v3c8.625 0 15.667-6.862 15.667-15.389h-3ZM38.833 25.722c7.024 0 12.667 5.575 12.667 12.39h3c0-8.528-7.042-15.39-15.667-15.39v3Zm0 24.778c-4.154 0-7.834-1.954-10.142-4.967l-2.382 1.825c2.861 3.733 7.41 6.142 12.524 6.142v-3Zm-10.142-4.967c-1.575-2.055-2.524-4.968-2.524-7.422h-3c0 3.102 1.16 6.66 3.142 9.247l2.382-1.825Zm-2.382 0c-2.308 3.013-5.988 4.967-10.142 4.967v3c5.113 0 9.663-2.409 12.524-6.142l-2.382-1.825Zm-.142-7.422c0-2.435.743-4.867 2.563-7.475l-2.46-1.717c-2.128 3.05-3.103 6.071-3.103 9.192h3Zm1.333-9.833c-4.155 0-7.834-1.955-10.143-4.968l-2.381 1.825c2.86 3.733 7.41 6.143 12.524 6.143v-3Zm10.143-4.968c-2.31 3.013-5.988 4.968-10.143 4.968v3c5.114 0 9.664-2.41 12.524-6.143l-2.381-1.825Z"/>
</svg>
